<?xml version="1.0" encoding="UTF-8"?>
<svg width="81px" height="20px" viewBox="0 0 81 20" version="1.1" xmlns="http://www.w3.org/2000/svg" xmlns:xlink="http://www.w3.org/1999/xlink">
    <title>Atoms/Logos/Dark</title>
    <defs>
        <filter color-interpolation-filters="auto" id="filter-1">
            <feColorMatrix in="SourceGraphic" type="matrix" values="0 0 0 0 1.000000 0 0 0 0 1.000000 0 0 0 0 1.000000 0 0 0 1.000000 0"></feColorMatrix>
        </filter>
    </defs>
    <g id="Symbols" stroke="none" stroke-width="1" fill="none" fill-rule="evenodd">
        <g id="Header/main/tags" transform="translate(-39.000000, -20.000000)">
            <g id="Group-77-Copy" transform="translate(40.000000, 20.000000)" filter="url(#filter-1)">
                <g>
                    <g id="Group-76" fill="#FFFFFF">
                        <g id="Atoms/Logo/Bracket-Top-Left" transform="translate(-0.015867, 0.000000)">
                            <path d="M7.09677419,0 L7.09677419,1.07691069 L6.8662797,1.06624982 L6.61633427,1.06300862 L6.40480998,1.06953455 L6.29404263,1.07741277 L6.13251757,1.09593831 L6.04751299,1.1096768 L5.85414925,1.15265677 L5.55309949,1.23848689 L5.43357862,1.26476271 L5.36250201,1.27586566 C5.25997415,1.2894077 5.14020762,1.29468684 4.98617445,1.28626695 C4.91056864,1.28182656 4.83027571,1.27454152 4.74726662,1.26550322 L4.49206177,1.23421997 L3.98165847,1.16647908 L3.85951494,1.15287724 L3.69675928,1.13926944 L3.60741695,1.13532587 C3.5518147,1.1339535 3.50090166,1.13499767 3.45588909,1.13912907 L3.3935077,1.1452179 L3.3935077,1.1452179 L3.30664682,1.14585072 L3.20153145,1.13759495 L3.08620961,1.12099148 L2.98654794,1.10195619 L2.80200708,1.05741992 L2.77089745,1.04862403 L1.23548387,1.03290323 L1.23529862,2.16181501 L1.22529661,2.161789 L1.33261866,2.83342076 L1.3675307,3.09625244 L1.38145424,3.23498442 L1.3905425,3.40583432 L1.38662836,3.53065045 L1.38662836,3.53065045 L1.33587708,3.90390201 L1.30205594,4.19157235 L1.28670957,4.34642241 L1.26574598,4.62236947 L1.25545813,4.94120481 L1.26119033,5.16117826 L1.27728509,5.34105468 L1.29440782,5.45484348 L1.33138987,5.6247672 L1.39234393,5.85172616 L1.41527344,5.95927721 L1.41923125,5.98315437 L1.41935484,6.50582204 L1.39193678,6.71964967 L1.39193678,6.71964967 L1.30417535,7.30053791 L1.27691039,7.53111879 L1.26934716,7.64084844 L1.26831106,7.74193548 L1.26831106,7.74193548 L1.60445134e-14,7.74185078 L1.60445134e-14,0 L7.09677419,0 Z" id="Path"></path>
                        </g>
                        <g id="Atoms/Logo/Bracket-Bottom-Right" transform="translate(71.919093, 12.258065)">
                            <path d="M-2.93098879e-14,7.74193548 L-2.93098879e-14,6.6650248 L0.104014315,6.6705759 L0.189347857,6.67424926 L0.230494491,6.67568567 L0.283822066,6.67719899 C0.336285597,6.67848675 0.386179062,6.67910475 0.433701059,6.6791158 L0.480439922,6.67892686 L0.525641939,6.67834723 L0.569351245,6.67739087 L0.61161197,6.67607173 L0.65246825,6.67440377 L0.691964216,6.67240093 L0.748754118,6.66879931 L0.802731563,6.66452271 L0.854045501,6.65961823 L0.886848621,6.656023 L0.934054376,6.65017668 L0.964256624,6.64599717 L1.00776794,6.63933984 L1.0492612,6.63225868 L1.08888535,6.62480079 L1.12678933,6.61701326 L1.1749096,6.6061985 L1.24262494,6.58927872 L1.27479607,6.58060691 L1.33712613,6.5628709 L1.42048543,6.53806659 L1.52290497,6.5088773 L1.5436747,6.50344859 L1.59666428,6.49068049 L1.61842353,6.48593855 L1.64058319,6.48143041 L1.70998776,6.46947578 L1.73427219,6.46606982 C1.83680004,6.45252778 1.95656657,6.44724865 2.11059974,6.45566853 C2.22400846,6.46232911 2.34796319,6.47539017 2.47581198,6.49116822 L2.54003009,6.49926661 L2.60471243,6.50771551 L2.91373667,6.5496412 L3.00640531,6.56188352 L3.06115525,6.56885282 L3.11511572,6.57545641 L3.20295987,6.58546387 L3.23725926,6.58905824 L3.30421961,6.595435 L3.33680735,6.59817683 L3.40001491,6.60266605 L3.44555448,6.60508298 L3.48935724,6.60660961 C3.5449595,6.60798198 3.59587253,6.60693782 3.64088511,6.60280641 L3.67531388,6.59902742 C3.69353277,6.59709474 3.71262218,6.59596571 3.73235319,6.59553189 L3.76240227,6.595389 L3.81836776,6.59750001 L3.83741915,6.59881394 L3.87589373,6.60225177 L3.89524275,6.60434053 L3.9146168,6.60665242 L4.01056458,6.62094401 L4.05697679,6.62933067 L4.11022626,6.6399793 L4.16771367,6.65260921 L4.20488429,6.66137143 L4.23184067,6.66801487 L4.2669463,6.67704005 L4.29476711,6.68451556 L4.32587675,6.69331145 L5.861,6.708 L5.86147557,5.58012047 L5.87147758,5.58014649 L5.80636092,5.18096483 L5.79244126,5.09361637 L5.77656213,4.99136088 L5.76415553,4.90851472 L5.75485618,4.84392882 L5.74828658,4.79654203 L5.74011563,4.73484408 L5.7292435,4.64568304 L5.72158257,4.57470265 L5.71890309,4.54720352 L5.71531995,4.50695107 L5.71139623,4.45520695 L5.70850385,4.40575628 L5.70670345,4.35869994 L5.70612228,4.29809228 L5.70737778,4.25219635 L5.70846048,4.23290577 L5.71229732,4.19063638 L5.71229732,4.19063638 L5.73233255,4.05022419 L5.743111,3.97249539 L5.76089712,3.83803347 L5.77501741,3.72423472 L5.78760493,3.61565169 L5.79471826,3.55036313 L5.80433543,3.456043 L5.81006462,3.39551307 L5.81994616,3.27991368 L5.82663869,3.18895239 L5.83102821,3.11956601 L5.83377867,3.06943725 L5.83607977,3.02090207 L5.83794498,2.9739205 L5.84042156,2.88445826 L5.84105984,2.84189763 L5.84120369,2.76091741 L5.84073618,2.72241787 L5.83992698,2.68519206 L5.83733736,2.61440172 L5.83558387,2.58075723 L5.82997022,2.50143143 L5.82508285,2.4497108 L5.82276782,2.4284422 L5.8194891,2.40088081 L5.81418693,2.36116482 L5.80846421,2.3232802 L5.80236637,2.287092 L5.79593882,2.2524653 L5.7869344,2.20849212 L5.77753226,2.16673517 L5.77271569,2.14658783 L5.76538432,2.11716828 L5.75032972,2.06015565 L5.71648563,1.9371428 L5.70443026,1.89020933 L5.69543624,1.85203231 L5.68150076,1.78265827 L5.67754295,1.75878111 L5.67741935,1.23611345 C5.68497454,1.16722762 5.69440246,1.09545197 5.70483742,1.02228581 L5.72212539,0.905156954 L5.76562319,0.624386599 L5.77836675,0.540185789 L5.79259884,0.441397579 L5.80322565,0.361557146 L5.81070524,0.29968181 L5.81711116,0.239867959 L5.8198638,0.210816696 L5.82437304,0.154590706 L5.82742704,0.101087045 C5.82899921,0.0651220165 5.82942009,0.0312955617 5.82846313,0 L7.09677419,8.47010174e-05 L7.09677419,7.74193548 L-2.93098879e-14,7.74193548 Z" id="Combined-Shape"></path>
                        </g>
                    </g>
                    <path d="M9.91513943,14.6922345 C10.9607257,14.6922345 11.8399686,14.3640212 12.5528683,13.7075945 C13.265768,13.0511679 13.6994487,12.1739432 13.8539103,11.0759205 L13.8539103,11.0759205 L12.4459334,10.7894798 C12.3508801,11.4936465 12.0835427,12.0993493 11.6439212,12.606588 C11.2042997,13.1138268 10.63398,13.3674462 9.93296192,13.3674462 C9.04183729,13.3674462 8.34081924,13.0392329 7.82990779,12.3828062 C7.31899633,11.7263796 7.0635406,10.8252848 7.0635406,9.67952198 C7.0635406,8.5218241 7.32493716,7.61774559 7.84773028,6.96728647 C8.3705234,6.31682734 9.05965978,5.99159778 9.91513943,5.99159778 C10.6280391,5.99159778 11.1864772,6.2213471 11.5904537,6.68084575 C11.9944302,7.1403444 12.2677085,7.7221771 12.4102884,8.42634386 L12.4102884,8.42634386 L13.7826203,8.13990314 C13.6281587,7.11349058 13.1974485,6.2780385 12.4904896,5.63354689 C11.7835307,4.98905528 10.9250807,4.66680948 9.91513943,4.66680948 C8.69132827,4.66680948 7.66950535,5.11735685 6.84967069,6.0184516 C6.02983603,6.91954635 5.6199187,8.13990314 5.6199187,9.67952198 C5.6199187,11.2430109 6.01795437,12.4693352 6.81402571,13.3584949 C7.61009704,14.2476546 8.64380162,14.6922345 9.91513943,14.6922345 Z M17.5491071,3.01977536 L17.5491071,1.35483871 L15.8737928,1.35483871 L15.8737928,3.01977536 L17.5491071,3.01977536 Z M17.4421722,14.4236963 L17.4421722,4.93534765 L15.9807278,4.93534765 L15.9807278,14.4236963 L17.4421722,14.4236963 Z M23.6054542,14.4236963 L23.6054542,13.0093953 L22.8925544,13.0093953 C22.4291696,13.0093953 22.1202464,12.8960125 21.9657848,12.6692469 C21.8113232,12.4424814 21.7340924,12.0486254 21.7340924,11.487679 L21.7340924,11.487679 L21.7340924,6.24223341 L24.0510165,6.24223341 L24.0510165,4.93534765 L21.7162699,4.93534765 L21.7162699,2.60801684 L20.3261155,2.60801684 L20.3261155,4.93534765 L18.9716061,4.93534765 L18.9716061,6.24223341 L20.2904705,6.24223341 L20.2904705,11.6667044 C20.2904705,12.5857017 20.4894884,13.2749497 20.887524,13.7344484 C21.2855597,14.193947 21.9301398,14.4236963 22.8212645,14.4236963 L22.8212645,14.4236963 L23.6054542,14.4236963 Z M28.3079518,18.4517689 L33.3873622,4.93534765 L31.8902729,4.93534765 L29.4842364,11.487679 L29.4485914,11.487679 L26.7752175,4.93534765 L25.2424831,4.93534765 L28.7891591,13.4211538 L26.8999749,18.4517689 L28.3079518,18.4517689 Z M35.4778746,14.6027218 C37.2244789,14.6027218 38.7750358,13.4390564 38.7750358,11.6488019 C38.7750358,9.67952198 35.3887622,7.88926752 35.3887622,6.70769957 C35.3887622,6.00950033 35.7986795,5.54403416 36.5294017,5.54403416 C37.5452838,5.54403416 38.2225385,6.42125885 38.5789883,7.49541153 L38.6681008,7.49541153 C39.0780181,7.33428863 39.5770479,6.97623774 39.5770479,6.4391614 C39.5770479,5.45452144 38.6502783,4.86373747 37.2779464,4.86373747 C35.4422296,4.86373747 34.0698977,6.13481814 34.0698977,7.67443698 C34.0698977,9.75113216 37.3848813,11.3265561 37.3848813,12.6692469 C37.3848813,13.4748615 36.9214965,13.9224251 36.0660169,13.9224251 C34.8540874,13.9224251 34.0164302,12.8840775 33.6778029,11.3802637 L33.5708679,11.3802637 C33.0540156,11.5950943 32.6797433,12.078463 32.6797433,12.6513444 C32.6797433,13.7613022 33.8025603,14.6027218 35.4778746,14.6027218 Z M43.3749786,14.6027218 C45.014648,14.6027218 46.2265775,13.4032513 47.0107671,12.1142681 L46.6899623,11.8457299 C45.8523051,12.90198 45.1928729,13.492764 44.1769908,13.492764 C42.9828838,13.492764 42.483854,12.4007088 42.483854,11.093823 C42.483854,8.62327185 43.7670735,5.4366189 45.4423878,5.4366189 C46.4226249,5.4366189 46.6364948,6.42125885 46.6008498,7.62072935 L46.9038322,7.62072935 C47.5454419,7.49541153 47.9910042,7.10155555 47.9910042,6.40335631 C47.9910042,5.4366189 47.2068146,4.86373747 45.8879501,4.86373747 C42.9472388,4.86373747 40.5233798,8.21151332 40.5233798,11.3981663 C40.5233798,13.2242258 41.5214394,14.6027218 43.3749786,14.6027218 Z M51.575065,14.6027218 C54.5335988,14.6027218 56.7257654,11.2012383 56.7257654,8.24731841 C56.7257654,6.09901305 55.5673034,4.86373747 53.6959417,4.86373747 C50.7374079,4.86373747 48.5274188,8.26522096 48.5274188,11.2191408 C48.5274188,13.3674462 49.7037033,14.6027218 51.575065,14.6027218 Z M51.717645,14.0477429 C50.7730529,14.0477429 50.452248,13.0272978 50.452248,11.684607 C50.452248,9.17825073 51.8424024,5.41871635 53.5355392,5.41871635 C54.4801313,5.41871635 54.8009362,6.4391614 54.8009362,7.78185225 C54.8009362,10.2882085 53.4286043,14.0477429 51.717645,14.0477429 Z M60.2471174,18.2190358 L60.3540524,17.699862 C59.1243004,17.6819595 58.7678506,17.5566416 58.7678506,17.1448831 C58.7678506,17.0195653 58.8034955,16.8942475 58.856963,16.6973195 L59.5520402,13.9045225 C59.9084901,14.3341836 60.4788099,14.6027218 61.2629995,14.6027218 C63.9541959,14.6027218 66.9661972,11.290751 66.9661972,7.51331408 C66.9661972,5.84837742 66.2532975,4.86373747 65.0235455,4.86373747 C63.5086336,4.86373747 61.6729169,7.10155555 60.6392123,9.35727618 L61.8154968,4.86373747 L61.5481594,4.86373747 L58.4648682,5.63354689 L58.4114007,5.90208506 L59.4629278,6.49286903 L56.8786663,16.8584424 C56.7004414,17.5387391 56.397459,17.6461544 55.4885119,17.699862 L55.381577,18.2190358 L60.2471174,18.2190358 Z M61.0669521,13.9940353 C60.4788099,13.9940353 59.9619576,13.6538869 59.7302652,13.098908 C60.6035673,9.16034819 62.8135564,6.22433086 64.1502433,6.22433086 C64.7562081,6.22433086 64.970078,6.83301738 64.970078,7.72814462 C64.9522555,10.4851365 63.1343613,13.9940353 61.0669521,13.9940353 Z M70.6835966,14.6027218 C72.251976,14.6027218 73.4639055,13.7075945 74.604545,12.0247553 L74.2659176,11.7562172 C73.3926155,12.8661749 72.5549584,13.4569589 71.5390763,13.4569589 C70.3806142,13.4569589 69.685537,12.5439291 69.685537,10.9327001 C69.685537,10.7178696 69.7033595,10.4851365 69.721182,10.270306 C72.5727808,9.69742453 75.2817997,8.92761511 75.2817997,6.67189448 C75.2817997,5.68725452 74.5867225,4.86373747 73.0539881,4.86373747 C70.1667443,4.86373747 67.7428853,8.15780569 67.7428853,11.290751 C67.7428853,13.2779335 68.8478799,14.6027218 70.6835966,14.6027218 Z M69.7746495,9.84064489 C70.0954544,7.67443698 71.3252064,5.45452144 72.7510058,5.45452144 C73.374793,5.45452144 73.6243079,5.9199876 73.6243079,6.49286903 C73.6243079,8.24731841 72.3410884,9.23195837 69.7746495,9.84064489 Z" id="cityscope" fill="#FFFFFF" fill-rule="nonzero"></path>
                </g>
            </g>
        </g>
    </g>
</svg>